<svg width="547" height="45" viewBox="0 0 547 45" fill="none" xmlns="http://www.w3.org/2000/svg">
<path d="M20.4492 22.1087L19.4224 22.2128C19.2956 21.4377 19.1108 20.8051 18.8681 20.3151C18.6397 19.8075 18.343 19.4195 17.9781 19.151C17.6115 18.8665 17.1838 18.6928 16.6949 18.6298C16.2044 18.5509 15.6408 18.5437 15.0041 18.6083C14.3833 18.6713 13.8835 18.7381 13.5047 18.8087C13.1402 18.8617 12.8577 18.9306 12.6572 19.0153C12.471 19.0824 12.3509 19.1669 12.297 19.2689C12.243 19.3709 12.2232 19.4935 12.2378 19.6368L13.507 32.1486C13.5587 32.6579 13.6349 33.0925 13.7357 33.4521C13.8525 33.8102 14.0344 34.0973 14.2814 34.3135C14.5269 34.5137 14.871 34.6557 15.3137 34.7394C15.7548 34.8073 16.3264 34.8136 17.0284 34.7585L17.1253 35.7136L7.1206 36.7285L7.02372 35.7734C7.73843 35.6848 8.30503 35.563 8.72352 35.408C9.14039 35.237 9.44896 35.0288 9.64921 34.7834C9.86376 34.5204 9.9843 34.2026 10.0108 33.83C10.0533 33.4558 10.0487 33.014 9.99701 32.5046L8.7278 19.9928C8.71326 19.8496 8.66931 19.7334 8.59595 19.6444C8.53851 19.5537 8.41981 19.4934 8.23987 19.4634C8.05831 19.4175 7.79958 19.4035 7.46368 19.4215C7.14208 19.4219 6.71863 19.4488 6.19333 19.5021C5.62027 19.5602 5.07432 19.6478 4.55547 19.7647C4.03501 19.8658 3.58953 20.0718 3.21902 20.3828C2.8469 20.6778 2.56095 21.1089 2.36115 21.676C2.17567 22.2255 2.12422 22.9866 2.2068 23.9592L1.27558 24.0537L0.981477 18.7764L19.6775 16.8798L20.4492 22.1087Z" fill="white"/>
<path d="M32.6484 30.2654C32.7086 30.9186 32.7722 31.435 32.8393 31.8144C32.9208 32.1765 33.0348 32.4552 33.1814 32.6506C33.3438 32.8445 33.5634 32.9608 33.8401 32.9996C34.1328 33.037 34.5196 33.0495 35.0005 33.0374L35.0885 33.9934L27.5604 34.6865L27.4723 33.7306C27.9474 33.6547 28.3254 33.5717 28.6063 33.4815C28.8872 33.3914 29.0906 33.2441 29.2163 33.0397C29.3421 32.8353 29.4048 32.5564 29.4044 32.203C29.4185 31.8321 29.3976 31.344 29.3419 30.7385L28.4375 20.9161C28.3495 19.9601 28.2646 19.2128 28.1828 18.674C28.1155 18.1178 28.0368 17.6993 27.9467 17.4184C27.8798 17.2156 27.8094 17.0614 27.7354 16.9558C27.6599 16.8342 27.5476 16.7481 27.3983 16.6976C27.2635 16.6297 27.0759 16.5987 26.8354 16.6048C26.6094 16.5935 26.3212 16.604 25.9707 16.6362L25.8893 15.752L31.1351 14.3531L31.9471 23.1718L32.0427 23.163C32.4764 22.4643 32.9821 21.9357 33.5597 21.5772C34.1532 21.2173 34.8801 20.9977 35.7405 20.9185C37.3019 20.7747 38.5567 21.1412 39.5051 22.018C39.9634 22.4578 40.3435 23.0093 40.6456 23.6724C40.9462 24.3195 41.1303 25.0096 41.1977 25.7425L41.5388 29.4468C41.6004 30.116 41.6648 30.6403 41.7319 31.0197C41.7975 31.3832 41.9035 31.6627 42.0501 31.8581C42.2111 32.0361 42.4299 32.1444 42.7066 32.1832C42.9834 32.222 43.3622 32.2354 43.8431 32.2232L43.9311 33.1792L36.4508 33.8679L36.3627 32.912C36.8392 32.852 37.21 32.7777 37.475 32.689C37.7544 32.583 37.9571 32.4277 38.0828 32.2234C38.2246 32.0175 38.2952 31.7378 38.2948 31.3844C38.3089 31.0135 38.288 30.5254 38.2323 29.9199L37.9616 26.9804C37.8061 25.2915 37.5129 24.1135 37.0819 23.4462C36.6509 22.7789 35.9893 22.4863 35.097 22.5684C34.1411 22.6565 33.4165 23.0767 32.9235 23.829C32.6863 24.2204 32.5131 24.6943 32.4036 25.2507C32.3101 25.8056 32.2941 26.4177 32.3558 27.0868L32.6484 30.2654Z" fill="white"/>
<path d="M62.7957 29.3361C61.4822 31.0998 59.7413 32.0724 57.5729 32.2539C56.5843 32.3366 55.6708 32.2606 54.8323 32.0257C54.0084 31.7735 53.2861 31.3924 52.6654 30.8824C52.0433 30.3565 51.5402 29.7162 51.1559 28.9616C50.7716 28.2071 50.5394 27.3515 50.4594 26.3948C50.3766 25.4063 50.4686 24.4914 50.7354 23.6502C51.0008 22.7931 51.4118 22.0442 51.9683 21.4035C52.5394 20.7456 53.2255 20.2145 54.0266 19.8103C54.8436 19.4048 55.7544 19.1599 56.7589 19.0759C58.4489 18.9344 59.8024 19.2787 60.8192 20.1088C61.8359 20.9389 62.4131 22.1751 62.5505 23.8173C62.5719 24.0724 62.5454 24.2352 62.471 24.3057C62.3953 24.3602 62.174 24.4028 61.8073 24.4335L54.1062 25.078C54.0545 25.2269 54.0446 25.4926 54.0766 25.8753C54.2074 27.4378 54.6457 28.6455 55.3914 29.4982C56.1531 30.3497 57.1159 30.7267 58.2798 30.6293C58.9495 30.5732 59.5985 30.3664 60.2268 30.0087C60.8711 29.6497 61.4808 29.1652 62.056 28.5551L62.7957 29.3361ZM57.6294 23.4344C58.2672 23.3811 58.6711 23.3151 58.8412 23.2367C59.0258 23.1409 59.1068 22.9576 59.0841 22.6865C59.0254 21.985 58.7781 21.4276 58.3421 21.0146C57.9061 20.6015 57.3852 20.4203 56.7793 20.471C56.0937 20.5284 55.5039 20.8668 55.0098 21.4862C54.5304 22.0882 54.2476 22.8344 54.1616 23.7247L57.6294 23.4344Z" fill="white"/>
<path d="M97.6049 15.0872C97.698 16.412 97.393 17.5482 96.6897 18.4958C95.9864 19.4434 94.8075 20.1278 93.1529 20.5488L99.1548 26.5267C99.5692 26.9467 100.048 27.2579 100.592 27.4603C101.134 27.6467 101.677 27.7209 102.219 27.6827L102.287 28.6404L96.6127 29.0391L90.1638 22.1784C89.7311 21.7276 89.3576 21.4331 89.0431 21.2948C88.7435 21.1394 88.466 21.0707 88.2106 21.0886L88.5404 25.7811C88.5819 26.3716 88.656 26.8556 88.7627 27.2331C88.8683 27.5945 89.0481 27.8706 89.3021 28.0613C89.5561 28.2519 89.9094 28.3715 90.3619 28.4199C90.8292 28.4512 91.4459 28.4399 92.2121 28.3861L92.2794 29.3437L82.7748 30.0117L82.7075 29.0541C83.2342 29.0171 83.6549 28.9554 83.9696 28.8691C84.2992 28.7658 84.545 28.6122 84.7071 28.4083C84.8841 28.1873 84.9921 27.8991 85.0313 27.5434C85.0693 27.1718 85.0687 26.7067 85.0295 26.1481L84.2521 15.0874C84.2128 14.5288 84.1575 14.0836 84.086 13.7518C84.0135 13.404 83.8907 13.14 83.7176 12.9596C83.5434 12.7634 83.3025 12.644 82.9947 12.6014C82.7018 12.5418 82.3068 12.5135 81.8098 12.5163L81.7425 11.5587L90.0261 10.9765C92.3404 10.8138 94.1566 11.0952 95.4747 11.8206C96.7928 12.5459 97.5029 13.6348 97.6049 15.0872ZM88.1096 19.6522L89.6658 19.5428C91.1661 19.4374 92.2631 19.0716 92.9569 18.4454C93.6656 17.8021 93.9728 16.8101 93.8786 15.4694C93.8068 14.448 93.4378 13.6479 92.7716 13.0691C92.1053 12.4904 91.2216 12.2398 90.1203 12.3172L88.0375 12.4636C87.7502 12.4838 87.6161 12.6295 87.6351 12.9008L88.1096 19.6522Z" fill="white"/>
<path d="M119.659 25.3277C118.307 27.062 116.545 27.996 114.373 28.1297C113.383 28.1906 112.471 28.0944 111.638 27.8411C110.82 27.5709 110.106 27.174 109.497 26.6504C108.886 26.1109 108.397 25.4597 108.03 24.6968C107.662 23.934 107.449 23.0734 107.39 22.1153C107.329 21.1251 107.441 20.2125 107.727 19.3774C108.011 18.5263 108.438 17.7867 109.009 17.1585C109.594 16.5133 110.292 15.9974 111.102 15.611C111.927 15.2235 112.843 14.9988 113.849 14.9369C115.542 14.8327 116.888 15.2068 117.886 16.0591C118.884 16.9113 119.434 18.1599 119.535 19.8048C119.551 20.0603 119.521 20.2225 119.445 20.2913C119.368 20.3441 119.146 20.3818 118.779 20.4044L111.065 20.8792C111.01 21.0268 110.994 21.2923 111.018 21.6756C111.114 23.2406 111.526 24.4576 112.253 25.3266C112.995 26.1946 113.95 26.5928 115.115 26.521C115.786 26.4797 116.44 26.2872 117.076 25.9435C117.728 25.5988 118.348 25.1278 118.936 24.5305L119.659 25.3277ZM114.624 19.3136C115.262 19.2743 115.668 19.2173 115.839 19.1426C116.026 19.0509 116.111 18.8694 116.094 18.5979C116.051 17.8952 115.816 17.3326 115.389 16.91C114.963 16.4874 114.446 16.2948 113.839 16.3322C113.152 16.3744 112.555 16.6997 112.048 17.3081C111.555 17.8994 111.256 18.6392 111.15 19.5274L114.624 19.3136Z" fill="white"/>
<path d="M131.919 21.6036C131.951 22.1948 132.06 22.7418 132.247 23.2445C132.449 23.7304 132.704 24.1494 133.011 24.5015C133.319 24.8537 133.677 25.1229 134.088 25.3093C134.499 25.4957 134.943 25.576 135.423 25.5504C136.381 25.4993 137.085 25.0211 137.533 24.1159C137.982 23.2107 138.16 21.9033 138.069 20.1937C137.98 18.5321 137.665 17.2831 137.124 16.4468C136.598 15.5936 135.847 15.1931 134.872 15.2451C134.297 15.2758 133.771 15.4642 133.292 15.8102C132.829 16.1394 132.477 16.5908 132.235 17.1645C131.909 17.951 131.776 18.9275 131.839 20.0938L131.919 21.6036ZM131.562 15.8065L131.658 15.8014C132.041 15.172 132.551 14.6801 133.189 14.3256C133.826 13.9551 134.56 13.7476 135.391 13.7033C136.238 13.6581 137.03 13.792 137.768 14.1051C138.521 14.4014 139.177 14.831 139.735 15.394C140.31 15.9562 140.771 16.6286 141.117 17.4112C141.463 18.1939 141.661 19.0406 141.709 19.9513C141.76 20.9099 141.64 21.8056 141.348 22.6383C141.071 23.4543 140.661 24.1732 140.117 24.795C139.59 25.4161 138.951 25.9148 138.202 26.2913C137.469 26.6669 136.679 26.8773 135.833 26.9225C134.954 26.9695 134.114 26.8461 133.313 26.5524C132.528 26.2418 131.888 25.8193 131.395 25.2849L129.659 26.9878L128.844 27.0313L128.083 12.7717C128.003 11.2698 127.844 10.2448 127.606 9.6967C127.552 9.58742 127.491 9.49455 127.423 9.41807C127.355 9.3416 127.256 9.28281 127.125 9.2417C127.01 9.18377 126.848 9.14437 126.638 9.1235C126.428 9.08666 126.154 9.05324 125.816 9.02322L125.772 8.20838L131.089 6.96307L131.562 15.8065Z" fill="white"/>
<path d="M161.607 23.1764C160.227 24.8885 158.45 25.7938 156.276 25.8922C155.285 25.937 154.375 25.8261 153.546 25.5593C152.733 25.2758 152.026 24.8673 151.425 24.334C150.823 23.7846 150.345 23.1255 149.99 22.3568C149.635 21.5881 149.436 20.7242 149.392 19.7652C149.347 18.7742 149.474 17.8635 149.773 17.0332C150.071 16.1868 150.51 15.4542 151.091 14.8353C151.687 14.1997 152.393 13.6953 153.209 13.322C154.041 12.948 154.96 12.7382 155.967 12.6927C157.661 12.616 159.001 13.0118 159.985 13.8802C160.969 14.7486 161.499 16.0059 161.573 17.6523C161.585 17.908 161.552 18.0696 161.475 18.1372C161.397 18.1888 161.175 18.2229 160.807 18.2395L153.087 18.5889C153.029 18.7357 153.009 19.0009 153.027 19.3845C153.098 20.9509 153.489 22.1744 154.202 23.0551C154.93 23.935 155.878 24.3486 157.045 24.2958C157.716 24.2654 158.373 24.0835 159.014 23.7502C159.672 23.4161 160.3 22.9553 160.898 22.3676L161.607 23.1764ZM156.67 17.0814C157.31 17.0524 157.716 17.002 157.889 16.9301C158.077 16.8415 158.165 16.6614 158.153 16.3896C158.121 15.6864 157.895 15.12 157.475 14.6905C157.055 14.2611 156.542 14.0601 155.934 14.0876C155.247 14.1187 154.645 14.4343 154.127 15.0343C153.625 15.6176 153.314 16.3524 153.194 17.2387L156.67 17.0814Z" fill="white"/>
<path d="M174.5 20.9525C174.525 21.592 174.569 22.1027 174.631 22.4845C174.694 22.8664 174.802 23.1585 174.954 23.3607C175.105 23.563 175.319 23.6989 175.594 23.7683C175.868 23.8217 176.237 23.8475 176.702 23.8455L176.739 24.8048L169.184 25.097L169.147 24.1377C169.594 24.1044 169.952 24.0426 170.221 23.9521C170.505 23.8451 170.715 23.6928 170.852 23.4954C171.004 23.2814 171.097 22.9975 171.131 22.644C171.181 22.2738 171.195 21.8089 171.173 21.2493L170.79 11.3447C170.754 10.4174 170.709 9.65857 170.654 9.06825C170.598 8.46194 170.542 8.0478 170.486 7.82582C170.39 7.42921 170.196 7.17252 169.904 7.05575C169.627 6.93835 169.121 6.89388 168.385 6.92233L168.354 6.10694L173.882 4.98042L174.5 20.9525Z" fill="white"/>
<path d="M188.502 20.4565C188.523 21.0962 188.564 21.6071 188.625 21.9893C188.686 22.3715 188.791 22.6641 188.942 22.8672C189.093 23.0703 189.306 23.2073 189.58 23.2782C189.854 23.3331 190.223 23.3609 190.688 23.3615L190.719 24.3209L183.164 24.5722L183.132 23.6128C183.579 23.5819 183.937 23.5219 184.206 23.4329C184.491 23.3274 184.702 23.1763 184.84 22.9796C184.993 22.7664 185.087 22.4831 185.124 22.1297C185.175 21.7598 185.192 21.295 185.173 20.7353L184.844 10.8288C184.813 9.9013 184.772 9.14225 184.72 8.55164C184.668 7.94504 184.614 7.5306 184.559 7.30832C184.465 6.9112 184.273 6.65346 183.981 6.53511C183.704 6.41622 183.199 6.36901 182.463 6.39347L182.436 5.57792L187.97 4.48134L188.502 20.4565Z" fill="white"/>
<path d="M202.746 20.0297C202.764 20.6695 202.802 21.1806 202.861 21.5631C202.919 21.9456 203.023 22.2389 203.173 22.4428C203.323 22.6467 203.535 22.7848 203.809 22.8572C204.083 22.9136 204.452 22.9434 204.916 22.9465L204.943 23.9061L197.386 24.1165L197.359 23.1569C197.806 23.1284 198.165 23.0704 198.434 22.9829C198.72 22.8789 198.932 22.7289 199.07 22.533C199.224 22.3206 199.32 22.0378 199.359 21.6846C199.412 21.315 199.431 20.8503 199.416 20.2905L199.334 17.3397C199.308 16.412 199.271 15.6527 199.222 15.0619C199.173 14.455 199.122 14.0403 199.068 13.8177C198.976 13.4201 198.785 13.1613 198.494 13.0414C198.218 12.921 197.713 12.871 196.977 12.8915L196.954 12.0758L202.495 11.0092L202.746 20.0297ZM198.826 6.02138C198.812 5.49359 198.975 5.04886 199.318 4.6872C199.675 4.3091 200.11 4.11292 200.622 4.09867C201.149 4.08398 201.594 4.25566 201.957 4.61372C202.334 4.95534 202.53 5.39005 202.545 5.91785C202.559 6.42965 202.388 6.8746 202.03 7.2527C201.688 7.61436 201.253 7.80254 200.725 7.81723C200.213 7.83148 199.769 7.6678 199.391 7.32618C199.029 6.96811 198.841 6.53318 198.826 6.02138Z" fill="white"/>
<path d="M218.268 10.6285C219.228 10.6083 220.135 10.7572 220.99 11.0753C221.861 11.377 222.622 11.8091 223.274 12.3714C223.942 12.9335 224.469 13.6106 224.853 14.4026C225.254 15.1784 225.464 16.0381 225.484 16.9819C225.504 17.9577 225.331 18.8575 224.965 19.6814C224.614 20.505 224.117 21.2197 223.473 21.8253C222.846 22.4307 222.104 22.9104 221.247 23.2646C220.406 23.6184 219.506 23.8054 218.546 23.8256C217.603 23.8455 216.703 23.7044 215.849 23.4023C214.994 23.0843 214.24 22.636 213.588 22.0577C212.936 21.4793 212.417 20.786 212.032 19.978C211.646 19.1539 211.443 18.254 211.423 17.2782C211.403 16.3344 211.569 15.4587 211.92 14.6512C212.271 13.8436 212.76 13.1451 213.388 12.5558C214.016 11.9664 214.75 11.5028 215.591 11.165C216.432 10.8272 217.325 10.6484 218.268 10.6285ZM218.298 12.0202C217.818 12.0303 217.381 12.1676 216.986 12.4319C216.591 12.6803 216.254 13.0315 215.976 13.4854C215.713 13.9391 215.509 14.4875 215.363 15.1307C215.232 15.7576 215.174 16.455 215.191 17.2228C215.207 18.0226 215.295 18.741 215.452 19.3778C215.625 20.0143 215.853 20.5536 216.134 20.9958C216.432 21.4376 216.775 21.7825 217.164 22.0303C217.569 22.2618 218.02 22.3724 218.516 22.3619C219.011 22.3515 219.457 22.222 219.852 21.9737C220.262 21.709 220.607 21.3496 220.885 20.8957C221.163 20.4257 221.376 19.8691 221.522 19.2259C221.669 18.5826 221.734 17.8691 221.717 17.0853C221.701 16.3175 221.606 15.6233 221.433 15.0028C221.26 14.3823 221.025 13.8512 220.727 13.4093C220.43 12.9515 220.07 12.607 219.649 12.3758C219.244 12.1283 218.794 12.0098 218.298 12.0202Z" fill="white"/>
<path d="M237.768 19.3374C237.776 19.9933 237.799 20.5131 237.836 20.8966C237.888 21.264 237.98 21.5509 238.111 21.7573C238.257 21.9474 238.467 22.0728 238.739 22.1334C239.028 22.1938 239.413 22.2369 239.893 22.2629L239.905 23.2228L232.346 23.3178L232.334 22.3579C232.797 22.3201 233.165 22.2674 233.436 22.2C233.723 22.1324 233.937 22.0017 234.079 21.8079C234.237 21.6139 234.337 21.3406 234.381 20.9881C234.424 20.6355 234.442 20.1552 234.435 19.5473L234.397 16.5475C234.385 15.6036 234.359 14.8438 234.32 14.2683C234.281 13.6767 234.236 13.2773 234.185 13.0699C234.135 12.8625 234.068 12.6953 233.987 12.5683C233.905 12.4254 233.784 12.3229 233.623 12.2609C233.462 12.1829 233.261 12.1374 233.021 12.1244C232.781 12.0955 232.477 12.0833 232.109 12.0879L232.098 11.272L236.719 10.3018L237.057 12.4098L237.153 12.4085C237.673 11.73 238.29 11.2022 239.005 10.8252C239.721 10.4481 240.51 10.2542 241.374 10.2433C242.398 10.2305 243.224 10.3641 243.851 10.6443C244.495 10.9082 245.069 11.365 245.573 12.0147C245.849 12.3793 246.095 12.8562 246.311 13.4456C246.526 14.0189 246.64 14.8175 246.653 15.8415L246.695 19.2252C246.704 19.8811 246.726 20.4009 246.763 20.7845C246.816 21.1518 246.907 21.4387 247.038 21.6451C247.184 21.8353 247.394 21.9606 247.667 22.0212C247.939 22.0818 248.308 22.1252 248.772 22.1513L248.784 23.1113L241.273 23.2056L241.261 22.2457C241.741 22.2237 242.116 22.179 242.387 22.1116C242.674 22.0279 242.889 21.8892 243.03 21.6954C243.172 21.5016 243.264 21.2285 243.308 20.8759C243.351 20.5073 243.369 20.027 243.362 19.4351L243.321 16.1714C243.311 15.3554 243.254 14.6681 243.151 14.1093C243.048 13.5506 242.882 13.1046 242.654 12.7715C242.442 12.4221 242.159 12.1776 241.805 12.0381C241.451 11.8825 241.01 11.808 240.482 11.8147C239.97 11.8211 239.532 11.9706 239.167 12.2632C238.803 12.5558 238.488 12.9598 238.223 13.4752C238.082 13.765 237.959 14.1426 237.853 14.6079C237.762 15.0571 237.72 15.5297 237.727 16.0256L237.768 19.3374Z" fill="white"/>
<path d="M273.521 12.784C274.545 12.7852 275.369 12.7541 275.993 12.6908C276.617 12.6276 277.097 12.5001 277.433 12.3085C277.785 12.1009 278.034 11.8052 278.178 11.4214C278.323 11.0375 278.435 10.5177 278.516 9.86177L279.404 9.8628L279.396 16.8948L278.508 16.8938C278.413 16.2537 278.285 15.7415 278.126 15.3573C277.966 14.9731 277.71 14.6848 277.359 14.4924C277.007 14.284 276.527 14.1555 275.919 14.1068C275.327 14.0421 274.527 14.0091 273.519 14.008L273.513 18.952C273.513 19.464 273.576 19.896 273.704 20.2482C273.848 20.6004 274.079 20.8886 274.399 21.113C274.719 21.3214 275.143 21.4739 275.67 21.5705C276.198 21.6511 276.846 21.6918 277.614 21.6927C278.526 21.6938 279.294 21.6307 279.919 21.5034C280.559 21.3761 281.087 21.1528 281.503 20.8332C281.92 20.5137 282.256 20.0901 282.513 19.5624C282.769 19.0187 282.986 18.339 283.163 17.5232L284.123 17.5243L283.733 23.0198L267.461 23.001L267.462 22.041C267.99 22.0256 268.422 21.9781 268.758 21.8985C269.094 21.8189 269.35 21.6831 269.527 21.4914C269.703 21.2996 269.823 21.0277 269.887 20.6758C269.952 20.3238 269.984 19.8679 269.985 19.3079L269.998 8.21989C269.999 7.65989 269.967 7.21185 269.903 6.87578C269.856 6.52373 269.752 6.2516 269.592 6.05942C269.433 5.85123 269.201 5.71496 268.897 5.65061C268.609 5.57028 268.225 5.51383 267.745 5.48128L267.746 4.52128L282.914 4.53887L283.077 9.24306L282.045 9.24186C281.95 8.56975 281.798 8.01758 281.591 7.58534C281.383 7.1371 281.096 6.78476 280.728 6.52833C280.36 6.25591 279.88 6.07135 279.289 5.97466C278.713 5.862 278.001 5.80517 277.153 5.80419L274.441 5.80104C274.025 5.80056 273.769 5.85626 273.673 5.96815C273.576 6.06404 273.528 6.30398 273.528 6.68798L273.521 12.784Z" fill="white"/>
<path d="M296.83 19.398C296.825 20.0219 296.844 20.5181 296.889 20.8866C296.95 21.2391 297.067 21.5122 297.241 21.7058C297.416 21.8994 297.671 22.0297 298.006 22.0967C298.342 22.1478 298.789 22.1759 299.349 22.181L299.341 23.1409L291.325 23.0681L291.334 22.1081C291.814 22.0805 292.198 22.036 292.487 21.9746C292.775 21.9132 292.993 21.7872 293.138 21.5965C293.284 21.4058 293.375 21.1346 293.41 20.7829C293.461 20.4154 293.489 19.9276 293.495 19.3197L293.522 16.3918C293.531 15.3998 293.514 14.6076 293.471 14.0152C293.429 13.4228 293.329 12.9659 293.172 12.6444C293.015 12.323 292.784 12.1129 292.481 12.0141C292.194 11.8995 291.811 11.84 291.331 11.8357L291.339 10.9957L296.146 10.1514L296.505 12.9147L296.601 12.9156C297.041 12.0716 297.615 11.4048 298.324 10.9152C299.032 10.4256 299.778 10.1844 300.562 10.1915C301.17 10.197 301.665 10.3535 302.046 10.661C302.427 10.9685 302.616 11.3542 302.612 11.8182C302.607 12.3301 302.451 12.7607 302.144 13.11C301.853 13.4593 301.451 13.6317 300.939 13.627C300.699 13.6249 300.483 13.5749 300.292 13.4772C300.101 13.3794 299.926 13.2738 299.767 13.1604C299.624 13.0311 299.473 12.9177 299.314 12.8203C299.171 12.7069 299.02 12.6496 298.86 12.6481C298.556 12.6454 298.266 12.8427 297.99 13.2402C297.715 13.6378 297.486 14.1717 297.304 14.8421C297.171 15.3209 297.063 15.8639 296.977 16.4712C296.892 17.0624 296.846 17.654 296.841 18.246L296.83 19.398Z" fill="white"/>
<path d="M315.955 16.523C314.601 17.1094 313.576 17.661 312.88 18.1779C312.2 18.6791 311.855 19.2096 311.846 19.7695C311.839 20.2335 311.961 20.6035 312.212 20.8796C312.464 21.1556 312.782 21.2967 313.166 21.3029C313.55 21.3091 313.911 21.2509 314.249 21.1283C314.587 20.9897 314.878 20.8103 315.121 20.5902C315.365 20.3701 315.553 20.1091 315.686 19.8072C315.835 19.4895 315.913 19.1547 315.918 18.8027L315.955 16.523ZM315.975 15.2512L315.991 14.2433C316.006 13.3155 315.849 12.6408 315.52 12.2195C315.207 11.7824 314.706 11.5584 314.018 11.5473C313.554 11.5399 313.2 11.6622 312.956 11.9143C312.713 12.1505 312.482 12.5548 312.265 13.1274C312.114 13.525 311.901 13.8337 311.626 14.0533C311.366 14.2731 311.005 14.3793 310.541 14.3719C310.093 14.3647 309.751 14.2232 309.515 13.9474C309.28 13.6716 309.166 13.2857 309.174 12.7898C309.186 12.0219 309.612 11.4206 310.451 10.986C311.306 10.5517 312.581 10.3481 314.277 10.3753C316.069 10.4041 317.344 10.7526 318.101 11.4208C318.859 12.0731 319.225 13.1591 319.201 14.6789L319.117 19.9342C319.095 21.294 319.356 21.9783 319.9 21.987C320.204 21.9919 320.485 21.8924 320.745 21.6885L321.093 22.3902C320.863 22.7866 320.506 23.1009 320.022 23.3332C319.555 23.5497 319.025 23.6532 318.433 23.6437C317.697 23.6319 317.141 23.3989 316.764 22.9448C316.387 22.4907 316.205 21.8557 316.218 21.0398L316.098 21.0379C315.621 21.8624 315.011 22.4847 314.268 22.9048C313.525 23.3249 312.682 23.5274 311.738 23.5123C310.73 23.4961 309.927 23.2032 309.328 22.6335C308.729 22.0478 308.437 21.299 308.452 20.3872C308.463 19.6833 308.786 19.0323 309.419 18.4344C310.053 17.8205 311.103 17.2293 312.568 16.6607L315.975 15.2512Z" fill="white"/>
<path d="M347.005 17.2224C345.644 17.7925 344.613 18.3318 343.91 18.8403C343.224 19.3333 342.873 19.8597 342.858 20.4195C342.845 20.8833 342.962 21.2547 343.21 21.5338C343.459 21.8129 343.775 21.9578 344.159 21.9685C344.542 21.9793 344.904 21.9254 345.244 21.8069C345.584 21.6723 345.877 21.4965 346.123 21.2793C346.369 21.0621 346.56 20.8034 346.697 20.5031C346.85 20.1872 346.931 19.8534 346.941 19.5015L347.005 17.2224ZM347.04 15.9509L347.069 14.9433C347.095 14.0157 346.946 13.3392 346.621 12.914C346.314 12.4732 345.816 12.2432 345.128 12.2239C344.664 12.2109 344.309 12.329 344.062 12.5781C343.815 12.8113 343.58 13.2129 343.356 13.7828C343.201 14.1786 342.984 14.4847 342.706 14.701C342.444 14.9177 342.081 15.0196 341.617 15.0066C341.169 14.994 340.829 14.8484 340.597 14.5698C340.364 14.2912 340.255 13.904 340.269 13.4082C340.291 12.6405 340.723 12.0444 341.568 11.6199C342.428 11.1958 343.706 11.0075 345.401 11.0551C347.192 11.1053 348.463 11.469 349.212 12.1463C349.962 12.8076 350.315 13.8979 350.273 15.4173L350.125 20.6712C350.087 22.0307 350.34 22.7181 350.884 22.7333C351.188 22.7418 351.471 22.6457 351.732 22.445L352.073 23.1508C351.838 23.5443 351.477 23.8544 350.99 24.0808C350.52 24.2917 349.989 24.3889 349.397 24.3723C348.662 24.3517 348.108 24.1121 347.737 23.6535C347.366 23.1949 347.191 22.5577 347.214 21.7421L347.094 21.7387C346.607 22.5574 345.99 23.1723 345.242 23.5835C344.494 23.9947 343.648 24.1871 342.705 24.1606C341.697 24.1324 340.897 23.8299 340.305 23.253C339.714 22.6602 339.43 21.908 339.456 20.9964C339.476 20.2926 339.806 19.6456 340.447 19.0554C341.088 18.4491 342.145 17.8705 343.617 17.3195L347.04 15.9509Z" fill="white"/>
<path d="M363.857 20.8801C363.835 21.5037 363.842 22.0002 363.877 22.3697C363.928 22.7237 364.039 22.9997 364.208 23.1978C364.377 23.3958 364.628 23.5327 364.962 23.6084C365.296 23.6681 365.743 23.7078 366.303 23.7274L366.269 24.6868L358.258 24.4064L358.291 23.447C358.772 23.4318 359.158 23.3972 359.448 23.3433C359.738 23.2895 359.958 23.1691 360.109 22.9822C360.259 22.7954 360.357 22.5266 360.401 22.176C360.462 21.8099 360.503 21.323 360.524 20.7154L360.627 17.7892C360.662 16.7978 360.665 16.0054 360.638 15.4121C360.611 14.8188 360.523 14.3594 360.374 14.034C360.225 13.7086 360.001 13.4927 359.7 13.3861C359.416 13.2641 359.035 13.1947 358.555 13.1779L358.584 12.3384L363.412 11.6189L363.7 14.3906L363.796 14.394C364.257 13.5616 364.848 12.9099 365.569 12.4388C366.29 11.9677 367.042 11.7459 367.826 11.7733C368.433 11.7946 368.924 11.9638 369.297 12.2811C369.67 12.5983 369.848 12.9888 369.832 13.4525C369.814 13.9642 369.647 14.3906 369.331 14.7318C369.031 15.0735 368.625 15.2354 368.113 15.2175C367.874 15.2091 367.659 15.1536 367.471 15.0509C367.282 14.9483 367.11 14.8382 366.954 14.7206C366.815 14.5877 366.667 14.4704 366.51 14.3689C366.37 14.2519 366.22 14.1906 366.06 14.185C365.756 14.1744 365.462 14.3642 365.176 14.7545C364.89 15.1447 364.647 15.6725 364.448 16.338C364.303 16.8132 364.18 17.3532 364.079 17.9581C363.978 18.5469 363.918 19.1371 363.897 19.7288L363.857 20.8801Z" fill="white"/>
<path d="M387.556 23.3038C386.032 24.889 384.183 25.6358 382.008 25.5441C381.017 25.5023 380.121 25.3124 379.318 24.9743C378.532 24.6209 377.863 24.1523 377.312 23.5685C376.76 22.9688 376.341 22.2705 376.055 21.4737C375.768 20.6769 375.645 19.7989 375.685 18.8398C375.727 17.8487 375.933 16.9526 376.303 16.1514C376.674 15.3343 377.175 14.6428 377.808 14.077C378.457 13.4958 379.204 13.0549 380.05 12.7542C380.911 12.4543 381.845 12.3255 382.852 12.368C384.547 12.4394 385.846 12.9506 386.751 13.9016C387.656 14.8525 388.074 16.1513 388.004 17.7978C387.993 18.0536 387.947 18.2118 387.864 18.2723C387.782 18.3169 387.557 18.3315 387.19 18.316L379.468 17.9904C379.398 18.1316 379.355 18.394 379.339 18.7777C379.273 20.3443 379.557 21.5973 380.19 22.5368C380.839 23.477 381.746 23.9717 382.913 24.0209C383.585 24.0492 384.255 23.9253 384.923 23.6492C385.607 23.3738 386.273 22.9695 386.92 22.4363L387.556 23.3038ZM383.17 16.8013C383.809 16.8282 384.218 16.8135 384.397 16.7569C384.592 16.6851 384.695 16.5133 384.707 16.2415C384.736 15.5382 384.561 14.9542 384.18 14.4898C383.799 14.0253 383.305 13.7803 382.698 13.7547C382.01 13.7257 381.383 13.9875 380.815 14.5401C380.264 15.0773 379.89 15.7822 379.693 16.6547L383.17 16.8013Z" fill="white"/>
<path d="M412.84 23.063C412.806 23.6861 412.804 24.1827 412.832 24.5528C412.877 24.9077 412.982 25.1858 413.147 25.387C413.313 25.5882 413.561 25.7298 413.893 25.8118C414.226 25.8779 414.672 25.926 415.231 25.9562L415.18 26.9148L407.175 26.4827L407.227 25.5241C407.708 25.518 408.094 25.4908 408.385 25.4424C408.676 25.394 408.899 25.2778 409.053 25.0939C409.207 24.9099 409.31 24.643 409.361 24.2933C409.428 23.9284 409.479 23.4424 409.511 22.8353L409.669 19.9115C409.723 18.921 409.741 18.1288 409.725 17.5351C409.709 16.9414 409.63 16.4804 409.488 16.1523C409.345 15.8241 409.125 15.6039 408.826 15.4917C408.545 15.3643 408.164 15.2877 407.685 15.2618L407.73 14.423L412.571 13.7951L412.806 16.5718L412.902 16.5769C413.379 15.7535 413.982 15.1131 414.712 14.6557C415.442 14.1984 416.198 13.9909 416.981 14.0331C417.588 14.0659 418.075 14.2444 418.442 14.5687C418.809 14.8929 418.98 15.2867 418.955 15.75C418.927 16.2613 418.752 16.6845 418.43 17.0196C418.123 17.3555 417.714 17.5097 417.203 17.4821C416.963 17.4692 416.75 17.4096 416.564 17.3034C416.377 17.1972 416.207 17.0839 416.053 16.9634C415.917 16.8278 415.771 16.7078 415.616 16.6033C415.478 16.4837 415.33 16.4196 415.17 16.411C414.866 16.3946 414.568 16.5788 414.275 16.9635C413.982 17.3483 413.729 17.8714 413.517 18.533C413.363 19.0054 413.23 19.543 413.118 20.1458C413.006 20.7326 412.934 21.3216 412.902 21.9127L412.84 23.063Z" fill="white"/>
<path d="M435.096 19.2873C435.135 18.6486 435.151 18.1445 435.141 17.7753C435.133 17.39 435.063 17.0971 434.931 16.8966C434.8 16.6802 434.593 16.5311 434.309 16.4495C434.043 16.3529 433.671 16.2658 433.195 16.1883L433.255 15.2302L438.668 15.5644L438.22 22.8226C438.16 23.7967 438.121 24.5638 438.102 25.1237C438.1 25.6686 438.123 26.0788 438.17 26.3542C438.205 26.5648 438.251 26.7359 438.307 26.8676C438.364 26.9834 438.462 27.0856 438.601 27.1743C438.74 27.2471 438.929 27.3068 439.167 27.3535C439.421 27.3853 439.748 27.4135 440.147 27.4381L440.09 28.3723L435.305 28.3655L435.173 26.2173L435.077 26.2113C434.621 26.8564 434.006 27.3395 433.232 27.6604C432.459 27.9814 431.609 28.1133 430.683 28.0561C428.975 27.9506 427.71 27.2634 426.891 25.9945C426.262 25.0258 426 23.6872 426.105 21.9784L426.305 18.7446C426.345 18.0898 426.361 17.5778 426.351 17.2085C426.343 16.8233 426.273 16.5304 426.141 16.3299C426.025 16.1304 425.834 15.9903 425.566 15.9097C425.299 15.813 424.928 15.726 424.452 15.6485L424.511 14.6903L429.877 15.0216L429.458 21.8007C429.359 23.4136 429.486 24.5997 429.84 25.359C430.195 26.1023 430.811 26.501 431.69 26.5552C432.632 26.6134 433.385 26.2271 433.949 25.3963C434.512 24.5974 434.843 23.3915 434.942 21.7786L435.096 19.2873Z" fill="white"/>
<path d="M452.782 25.3379C452.735 25.9922 452.715 26.5121 452.719 26.8974C452.741 27.2678 452.809 27.5613 452.922 27.7778C453.052 27.9795 453.25 28.1219 453.517 28.2049C453.8 28.289 454.18 28.364 454.656 28.4297L454.589 29.3873L447.047 28.8544L447.115 27.8968C447.58 27.8976 447.951 27.8756 448.226 27.831C448.518 27.7874 448.743 27.675 448.9 27.4936C449.073 27.3134 449.196 27.0494 449.269 26.7016C449.341 26.3539 449.399 25.8768 449.442 25.2703L449.654 22.2777C449.72 21.3361 449.758 20.5769 449.766 20C449.776 19.4073 449.764 19.0054 449.731 18.7946C449.698 18.5837 449.646 18.4116 449.575 18.2783C449.506 18.129 449.393 18.0168 449.238 17.9417C449.084 17.8506 448.888 17.7886 448.65 17.7557C448.413 17.7069 448.111 17.6695 447.743 17.6436L447.801 16.8296L452.486 16.2464L452.648 18.3751L452.744 18.3819C453.318 17.7488 453.977 17.2741 454.721 16.9578C455.465 16.6414 456.268 16.5137 457.13 16.5746C458.152 16.6468 458.963 16.8485 459.566 17.1798C460.185 17.4963 460.719 17.9991 461.167 18.6885C461.413 19.0747 461.618 19.5705 461.784 20.1757C461.951 20.7649 461.998 21.5702 461.926 22.5917L461.687 25.9673C461.641 26.6216 461.62 27.1415 461.625 27.5268C461.647 27.8972 461.715 28.1907 461.828 28.4072C461.958 28.6089 462.156 28.7512 462.423 28.8343C462.69 28.9173 463.054 28.9911 463.514 29.0557L463.447 30.0133L455.953 29.4838L456.021 28.5262C456.501 28.544 456.879 28.5306 457.155 28.486C457.447 28.4265 457.673 28.3061 457.83 28.1247C457.987 27.9433 458.102 27.6788 458.174 27.331C458.248 26.9673 458.306 26.4902 458.348 25.8997L458.578 22.6438C458.635 21.8298 458.636 21.1401 458.58 20.5748C458.524 20.0094 458.395 19.5512 458.196 19.2003C458.013 18.8345 457.751 18.5674 457.41 18.3989C457.07 18.2145 456.637 18.1037 456.11 18.0665C455.6 18.0304 455.151 18.143 454.763 18.4043C454.376 18.6657 454.029 19.0421 453.721 19.5337C453.557 19.8108 453.403 20.1768 453.259 20.6318C453.131 21.0719 453.05 21.5394 453.015 22.0341L452.782 25.3379Z" fill="white"/>
<path d="M475.736 27.0373C475.684 27.6913 475.658 28.2109 475.66 28.5962C475.678 28.9669 475.743 29.2609 475.854 29.4784C475.983 29.6813 476.18 29.8254 476.446 29.9107C476.728 29.9974 477.107 30.0757 477.583 30.1457L477.507 31.1027L469.97 30.5027L470.047 29.5457C470.512 29.5507 470.882 29.532 471.159 29.4898C471.451 29.4489 471.676 29.3384 471.835 29.1584C472.01 28.9797 472.135 28.7169 472.211 28.3698C472.287 28.0227 472.349 27.5461 472.397 26.94L472.635 23.9495C472.71 23.0085 472.754 22.2496 472.768 21.6729C472.783 21.0802 472.775 20.6783 472.744 20.4671C472.712 20.256 472.662 20.0834 472.592 19.9495C472.524 19.7996 472.413 19.6864 472.258 19.6099C472.105 19.5175 471.909 19.4537 471.671 19.4187C471.435 19.3678 471.133 19.3277 470.766 19.2985L470.831 18.4851L475.521 17.9436L475.664 20.0737L475.76 20.0813C476.339 19.4533 477.003 18.9845 477.75 18.6748C478.497 18.3651 479.301 18.2445 480.162 18.3131C481.183 18.3944 481.993 18.6033 482.592 18.9399C483.208 19.2618 483.738 19.7695 484.18 20.4628C484.422 20.8512 484.623 21.3487 484.784 21.9553C484.945 22.546 484.985 23.3518 484.904 24.3725L484.636 27.7459C484.583 28.3998 484.558 28.9194 484.56 29.3048C484.578 29.6754 484.643 29.9695 484.754 30.187C484.882 30.3898 485.08 30.5339 485.346 30.6193C485.612 30.7047 485.975 30.7817 486.435 30.8505L486.359 31.8074L478.87 31.2113L478.946 30.2543C479.426 30.2764 479.804 30.2664 480.08 30.2242C480.374 30.1673 480.6 30.0489 480.759 29.8689C480.918 29.6889 481.035 29.4254 481.111 29.0783C481.188 28.7153 481.25 28.2387 481.297 27.6486L481.556 24.3949C481.62 23.5815 481.627 22.8918 481.576 22.326C481.525 21.7601 481.401 21.3008 481.204 20.9481C481.025 20.5807 480.765 20.3113 480.426 20.1398C480.088 19.9524 479.655 19.8377 479.129 19.7958C478.619 19.7552 478.169 19.8638 477.779 20.1217C477.389 20.3796 477.039 20.7529 476.727 21.2417C476.56 21.5174 476.403 21.882 476.254 22.3357C476.123 22.7746 476.038 23.2413 475.999 23.7358L475.736 27.0373Z" fill="white"/>
<path d="M498.672 28.9179C498.617 29.5555 498.597 30.0676 498.611 30.4543C498.626 30.8411 498.696 31.1443 498.821 31.3639C498.947 31.5836 499.142 31.7451 499.406 31.8483C499.671 31.9356 500.034 32.0072 500.495 32.0633L500.412 33.0197L492.881 32.3659L492.964 31.4095C493.411 31.4323 493.774 31.4156 494.052 31.3594C494.347 31.2887 494.575 31.1639 494.735 30.9851C494.912 30.7917 495.04 30.5217 495.118 30.1752C495.214 29.8141 495.286 29.3546 495.334 28.7967L495.59 25.8558C495.67 24.9313 495.72 24.1727 495.739 23.5802C495.76 22.9717 495.756 22.5538 495.727 22.3265C495.682 21.921 495.522 21.6421 495.246 21.4897C494.986 21.3386 494.49 21.2313 493.756 21.1676L493.827 20.3547L499.453 19.9277L498.672 28.9179ZM496.378 14.5536C496.424 14.0276 496.637 13.6045 497.018 13.2842C497.417 12.9494 497.871 12.8042 498.381 12.8485C498.907 12.8941 499.33 13.1155 499.648 13.5126C499.985 13.8951 500.13 14.3493 500.084 14.8754C500.04 15.3854 499.819 15.8079 499.42 16.1427C499.039 16.4629 498.585 16.6002 498.059 16.5545C497.549 16.5102 497.126 16.2969 496.79 15.9143C496.471 15.5173 496.334 15.0637 496.378 14.5536Z" fill="white"/>
<path d="M512.627 30.1995C512.566 30.8526 512.533 31.3718 512.529 31.7571C512.543 32.128 512.603 32.423 512.711 32.6421C512.837 32.8467 513.032 32.9936 513.296 33.0828C513.577 33.1735 513.955 33.2572 514.43 33.334L514.34 34.2898L506.813 33.5821L506.903 32.6263C507.368 32.6379 507.739 32.6245 508.016 32.5863C508.309 32.5495 508.536 32.4423 508.697 32.2646C508.874 32.0884 509.003 31.8274 509.084 31.4814C509.165 31.1354 509.233 30.6598 509.29 30.0545L509.571 27.0676C509.66 26.1278 509.715 25.3696 509.737 24.7932C509.76 24.2008 509.758 23.7988 509.73 23.5872C509.701 23.3756 509.653 23.2024 509.586 23.0674C509.52 22.9166 509.41 22.8018 509.257 22.7231C509.105 22.6285 508.91 22.562 508.673 22.5236C508.437 22.4692 508.136 22.4249 507.769 22.3904L507.846 21.578L512.543 21.1036L512.656 23.2355L512.751 23.2445C513.34 22.6249 514.01 22.1656 514.761 21.8666C515.512 21.5676 516.318 21.4586 517.178 21.5395C518.198 21.6353 519.005 21.8558 519.599 22.201C520.211 22.5317 520.733 23.0468 521.165 23.7464C521.401 24.1382 521.595 24.6386 521.747 25.2475C521.9 25.8404 521.929 26.6466 521.833 27.6661L521.516 31.0353C521.455 31.6884 521.422 32.2076 521.418 32.5929C521.431 32.9638 521.492 33.2588 521.6 33.4778C521.725 33.6825 521.92 33.8294 522.185 33.9186C522.45 34.0077 522.812 34.09 523.271 34.1653L523.181 35.1211L515.702 34.4178L515.792 33.4621C516.271 33.4911 516.649 33.4864 516.926 33.4482C517.22 33.3955 517.448 33.2803 517.61 33.1026C517.771 32.925 517.892 32.6631 517.973 32.3172C518.055 31.9553 518.124 31.4796 518.179 30.8902L518.485 27.6406C518.561 26.8282 518.578 26.1387 518.535 25.5722C518.491 25.0056 518.374 24.5446 518.183 24.1891C518.008 23.8192 517.753 23.5461 517.416 23.3698C517.08 23.1775 516.65 23.0567 516.124 23.0072C515.614 22.9593 515.163 23.0615 514.769 23.3138C514.376 23.5661 514.02 23.9344 513.701 24.4186C513.531 24.6919 513.368 25.0543 513.213 25.5057C513.076 25.9428 512.984 26.4082 512.938 26.902L512.627 30.1995Z" fill="white"/>
<path d="M534.708 33.6743C535.134 33.7501 535.505 33.8202 535.82 33.8847C536.151 33.9507 536.458 34.0223 536.739 34.0994C537.038 34.1622 537.329 34.2322 537.61 34.3093C537.909 34.3721 538.224 34.4445 538.553 34.5265C539.777 34.8287 540.699 35.3977 541.322 36.2334C541.961 37.0549 542.224 38.0227 542.11 39.1368C541.971 40.4898 541.309 41.4593 540.123 42.0456C538.937 42.6318 537.262 42.814 535.097 42.5923C533.108 42.3886 531.602 41.9368 530.58 41.237C529.572 40.5548 529.123 39.6805 529.232 38.6141C529.317 37.7864 529.596 37.1797 530.07 36.794C530.542 36.4241 531.104 36.2726 531.757 36.3395C532.171 36.3819 532.561 36.5022 532.926 36.7005C533.306 36.9163 533.615 37.1973 533.853 37.5433C533.431 37.5805 533.07 37.7285 532.77 37.9873C532.485 38.2636 532.322 38.6008 532.281 38.9987C532.216 39.6353 532.444 40.1493 532.967 40.5406C533.504 40.9495 534.322 41.2102 535.42 41.3226C537.808 41.5672 539.079 40.9334 539.234 39.4213C539.289 38.8801 539.154 38.3918 538.829 37.9564C538.518 37.5386 538.032 37.2556 537.372 37.1075L533.252 36.1066C531.51 35.6869 530.708 34.8086 530.844 33.4716C530.911 32.819 531.173 32.307 531.629 31.9355C532.101 31.5657 532.735 31.3411 533.532 31.2619L533.541 31.1664C533.19 30.9856 532.876 30.7524 532.6 30.4668C532.339 30.1828 532.115 29.8622 531.926 29.5051C531.738 29.1481 531.599 28.772 531.511 28.377C531.44 27.9676 531.426 27.5561 531.469 27.1422C531.529 26.5533 531.704 26.0164 531.995 25.5315C532.304 25.0324 532.692 24.6217 533.159 24.2997C533.642 23.9792 534.189 23.7457 534.799 23.5991C535.427 23.4382 536.091 23.3936 536.791 23.4654C537.475 23.5355 538.133 23.7074 538.765 23.9811C539.396 24.2549 539.924 24.5984 540.348 25.0118C540.737 24.8265 541.074 24.676 541.359 24.5605C541.646 24.429 541.905 24.3349 542.136 24.2782C542.384 24.2071 542.606 24.1654 542.8 24.1532C542.996 24.125 543.189 24.1207 543.38 24.1402C543.985 24.2022 544.457 24.3872 544.795 24.6953C545.149 25.005 545.304 25.3827 545.258 25.8283C545.224 26.1626 545.092 26.4305 544.862 26.6322C544.634 26.8179 544.353 26.8937 544.019 26.8594C543.78 26.835 543.594 26.7677 543.46 26.6575C543.328 26.5314 543.197 26.3973 543.067 26.2553C542.955 26.0991 542.832 25.9658 542.698 25.8556C542.566 25.7296 542.381 25.6543 542.142 25.6298C541.808 25.5956 541.468 25.7779 541.121 26.1767C541.253 26.4635 541.334 26.7694 541.365 27.0943C541.398 27.4032 541.393 27.7646 541.35 28.1784C541.288 28.7833 541.136 29.3306 540.893 29.8203C540.65 30.3101 540.301 30.7328 539.846 31.0883C539.409 31.4296 538.858 31.7029 538.194 31.9082C537.53 32.1136 536.739 32.2176 535.822 32.2202C535.05 32.2215 534.506 32.2704 534.19 32.3667C533.891 32.4647 533.728 32.641 533.702 32.8957C533.663 33.2777 533.998 33.5372 534.708 33.6743ZM536.152 30.8789C536.662 30.931 537.087 30.7012 537.429 30.1894C537.771 29.6775 537.992 28.9362 538.091 27.9653C538.192 26.9784 538.126 26.2077 537.894 25.6531C537.663 25.0826 537.284 24.7704 536.759 24.7166C536.218 24.6612 535.761 24.8878 535.387 25.3964C535.013 25.9049 534.778 26.6287 534.682 27.5678C534.584 28.5228 534.665 29.3031 534.925 29.9087C535.202 30.5001 535.611 30.8234 536.152 30.8789Z" fill="white"/>
</svg>
