<svg width="32" height="32" viewBox="0 0 32 32" fill="none" xmlns="http://www.w3.org/2000/svg">
<path d="M18.7812 4.453C18.8399 4.29263 18.9465 4.15416 19.0865 4.05634C19.2265 3.95852 19.3932 3.90607 19.564 3.90607C19.7348 3.90607 19.9015 3.95852 20.0415 4.05634C20.1815 4.15416 20.2881 4.29263 20.3469 4.453L21.1434 6.62937C21.7686 8.33586 22.7582 9.88559 24.0432 11.1707C25.3283 12.4558 26.8781 13.4453 28.5845 14.0705L30.7609 14.8671C30.9213 14.9258 31.0597 15.0324 31.1576 15.1724C31.2554 15.3124 31.3078 15.4791 31.3078 15.6499C31.3078 15.8207 31.2554 15.9874 31.1576 16.1274C31.0597 16.2674 30.9213 16.374 30.7609 16.4328L28.5845 17.2294C26.8781 17.8545 25.3283 18.8441 24.0432 20.1292C22.7582 21.4143 21.7686 22.964 21.1434 24.6705L20.3469 26.8469C20.2881 27.0072 20.1815 27.1457 20.0415 27.2435C19.9015 27.3413 19.7348 27.3938 19.564 27.3938C19.3932 27.3938 19.2265 27.3413 19.0865 27.2435C18.9465 27.1457 18.8399 27.0072 18.7812 26.8469L17.9846 24.6705C17.3594 22.964 16.3699 21.4143 15.0848 20.1292C13.7997 18.8441 12.25 17.8545 10.5435 17.2294L8.36713 16.4328C8.20675 16.374 8.06829 16.2674 7.97047 16.1274C7.87265 15.9874 7.8202 15.8207 7.8202 15.6499C7.8202 15.4791 7.87265 15.3124 7.97047 15.1724C8.06829 15.0324 8.20675 14.9258 8.36713 14.8671L10.5435 14.0705C12.25 13.4453 13.7997 12.4558 15.0848 11.1707C16.3699 9.88559 17.3594 8.33586 17.9846 6.62937L18.7812 4.453ZM10.43 21.7484C10.4546 21.6816 10.4992 21.6239 10.5576 21.5832C10.6161 21.5425 10.6856 21.5206 10.7568 21.5206C10.8281 21.5206 10.8976 21.5425 10.956 21.5832C11.0145 21.6239 11.059 21.6816 11.0837 21.7484L11.4144 22.6566C11.6746 23.3677 12.0868 24.0135 12.6222 24.5489C13.1577 25.0843 13.8034 25.4965 14.5146 25.7567L15.4227 26.0875C15.4895 26.1121 15.5472 26.1567 15.5879 26.2151C15.6286 26.2736 15.6505 26.3431 15.6505 26.4143C15.6505 26.4856 15.6286 26.5551 15.5879 26.6135C15.5472 26.672 15.4895 26.7165 15.4227 26.7412L14.5146 27.0719C13.8034 27.3321 13.1577 27.7443 12.6222 28.2797C12.0868 28.8152 11.6746 29.461 11.4144 30.1721L11.0837 31.0802C11.059 31.147 11.0145 31.2047 10.956 31.2454C10.8976 31.2862 10.8281 31.308 10.7568 31.308C10.6856 31.308 10.6161 31.2862 10.5576 31.2454C10.4992 31.2047 10.4546 31.147 10.43 31.0802L10.0992 30.1721C9.83902 29.461 9.42683 28.8152 8.8914 28.2797C8.35597 27.7443 7.71018 27.3321 6.99908 27.0719L6.09096 26.7412C6.02412 26.7165 5.96646 26.672 5.92572 26.6135C5.88499 26.5551 5.86315 26.4856 5.86315 26.4143C5.86315 26.3431 5.88499 26.2736 5.92572 26.2151C5.96646 26.1567 6.02412 26.1121 6.09096 26.0875L6.99908 25.7567C7.71018 25.4965 8.35597 25.0843 8.8914 24.5489C9.42683 24.0135 9.83902 23.3677 10.0992 22.6566L10.43 21.7484ZM5.4725 0.266632C5.50187 0.186443 5.55517 0.117212 5.62518 0.0683025C5.69519 0.0193927 5.77853 -0.00683594 5.86393 -0.00683594C5.94933 -0.00683594 6.03267 0.0193927 6.10268 0.0683025C6.17268 0.117212 6.22598 0.186443 6.25536 0.266632L6.65266 1.35481C6.96582 2.20773 7.4608 2.9823 8.10327 3.62477C8.74574 4.26724 9.5203 4.76222 10.3732 5.07538L11.4614 5.47268C11.5416 5.50206 11.6108 5.55536 11.6597 5.62537C11.7086 5.69538 11.7349 5.77872 11.7349 5.86412C11.7349 5.94952 11.7086 6.03286 11.6597 6.10287C11.6108 6.17287 11.5416 6.22617 11.4614 6.25555L10.3732 6.65285C9.5203 6.96601 8.74574 7.461 8.10327 8.10347C7.4608 8.74594 6.96582 9.5205 6.65266 10.3734L6.25536 11.4616C6.22598 11.5418 6.17268 11.611 6.10268 11.6599C6.03267 11.7088 5.94933 11.7351 5.86393 11.7351C5.77853 11.7351 5.69519 11.7088 5.62518 11.6599C5.55517 11.611 5.50187 11.5418 5.4725 11.4616L5.07519 10.3734C4.76204 9.5205 4.26705 8.74594 3.62459 8.10347C2.98212 7.461 2.20755 6.96601 1.35464 6.65285L0.266463 6.25555C0.186275 6.22617 0.117044 6.17287 0.0681344 6.10287C0.0192248 6.03286 -0.00700378 5.94952 -0.00700378 5.86412C-0.00700378 5.77872 0.0192248 5.69538 0.0681344 5.62537C0.117044 5.55536 0.186275 5.50206 0.266463 5.47268L1.35464 5.07538C2.20755 4.76222 2.98212 4.26724 3.62459 3.62477C4.26705 2.9823 4.76204 2.20773 5.07519 1.35481L5.4725 0.266632Z" fill="#FFE6C3"/>
</svg>
