<svg width="1285" height="925" viewBox="0 0 1285 925" fill="none" xmlns="http://www.w3.org/2000/svg">
<mask id="path-1-inside-1_18_151" fill="white">
<path d="M1081 137H1285V925H0V137H205V0H1081V137Z"/>
</mask>
<path d="M1081 137H1285V925H0V137H205V0H1081V137Z" fill="white" fill-opacity="0.2"/>
<path d="M1081 137H1078V140H1081V137ZM1285 137H1288V134H1285V137ZM1285 925V928H1288V925H1285ZM0 925H-3V928H0V925ZM0 137V134H-3V137H0ZM205 137V140H208V137H205ZM205 0V-3H202V0H205ZM1081 0H1084V-3H1081V0ZM1081 137V140H1285V137V134H1081V137ZM1285 137H1282V925H1285H1288V137H1285ZM1285 925V922H0V925V928H1285V925ZM0 925H3V137H0H-3V925H0ZM0 137V140H205V137V134H0V137ZM205 137H208V0H205H202V137H205ZM205 0V3H1081V0V-3H205V0ZM1081 0H1078V137H1081H1084V0H1081Z" fill="white" mask="url(#path-1-inside-1_18_151)"/>
</svg>
