<svg width="35" height="34" viewBox="0 0 35 34" fill="none" xmlns="http://www.w3.org/2000/svg">
<path d="M27.2138 7.93286L24.7103 11.3969L26.0099 14.3471L28.3208 11.8759L27.2138 7.93299V7.93286ZM32.9297 8.7638L25.6323 16.5682L22.2834 8.96614L17.2922 17.7947L11.5183 9.04364L9.30473 16.6221L1.29321 8.82071L3.90298 17.2942C4.03214 17.271 4.16462 17.2583 4.30009 17.2583C5.54932 17.2583 6.57517 18.2844 6.57517 19.5335C6.57517 20.4514 6.02094 21.2482 5.23144 21.6067L5.58585 22.7575C6.41094 24.4486 10.358 25.7559 17.312 25.8923C24.6701 26.0367 29.1403 24.7275 29.9195 22.7575H29.9194L30.2087 21.4121C29.0907 21.2717 28.2152 20.3089 28.2152 19.1552C28.2152 17.9061 29.2411 16.88 30.4904 16.88C30.7237 16.88 30.9493 16.9158 31.1618 16.9822L32.9297 8.76367V8.7638ZM6.9137 8.89927L6.99472 12.6404L8.69206 14.2933L9.32903 12.1123L6.91384 8.8992L6.9137 8.89927ZM16.9135 9.09251L15.2877 12.5031L17.2105 15.4174L18.8654 12.4902L16.9134 9.09245L16.9135 9.09251ZM30.4904 18.1212C29.9119 18.1212 29.4562 18.5769 29.4562 19.1553C29.4562 19.7337 29.9119 20.1895 30.4904 20.1895C31.069 20.1895 31.5245 19.7338 31.5245 19.1554C31.5245 18.577 31.069 18.1212 30.4904 18.1212ZM4.29996 18.4994C3.72156 18.4994 3.26581 18.9552 3.26581 19.5336C3.26581 20.112 3.72149 20.5678 4.30002 20.5678C4.87855 20.5678 5.33417 20.1121 5.33417 19.5336C5.33417 18.9552 4.87862 18.4994 4.30009 18.4994H4.29996ZM12.9547 19.6842C14.2039 19.6842 15.2298 20.7102 15.2298 21.9595C15.2298 23.2086 14.2039 24.2345 12.9547 24.2345C11.7054 24.2345 10.6795 23.2086 10.6795 21.9595C10.6795 20.7104 11.7054 19.6842 12.9545 19.6842H12.9547ZM21.6694 19.6842C22.9187 19.6842 23.9445 20.7102 23.9445 21.9595C23.9445 23.2086 22.9187 24.2345 21.6694 24.2345C20.4201 24.2345 19.3942 23.2086 19.3942 21.9595C19.3942 20.7104 20.4202 19.6842 21.6694 19.6842ZM12.9546 20.9254C12.376 20.9254 11.9205 21.3809 11.9205 21.9595C11.9205 22.5379 12.376 22.9937 12.9545 22.9937C13.5329 22.9937 13.9886 22.5379 13.9886 21.9595C13.9886 21.3811 13.5331 20.9253 12.9545 20.9253L12.9546 20.9254ZM21.6694 20.9254C21.0908 20.9254 20.6352 21.3809 20.6352 21.9595C20.6352 22.5379 21.0909 22.9937 21.6694 22.9937C22.248 22.9937 22.7037 22.5379 22.7037 21.9595C22.7037 21.3811 22.248 20.9253 21.6694 20.9253L21.6694 20.9254Z" fill="white"/>
</svg>
