<svg width="25" height="29" viewBox="0 0 25 29" fill="none" xmlns="http://www.w3.org/2000/svg">
<path d="M7.58852 27V22.7486C7.58856 21.7061 7.94929 20.6958 8.60909 19.8905C4.56319 19.35 1.50015 17.3784 1.50015 12.0554C1.50015 9.80405 3.42818 6.79865 3.42818 6.79865C2.73614 5.27162 2.75499 2.63108 3.50897 2C3.50897 2 6.13442 2.23649 8.68852 4.36486C11.1632 3.69595 13.7563 3.61622 16.3104 4.36486C18.8645 2.23649 21.4913 2 21.4913 2C22.2426 2.63108 22.2628 5.27297 21.5721 6.79865C21.5721 6.79865 23.5002 9.80405 23.5002 12.0554C23.5002 17.3797 20.4358 19.35 16.3912 19.8905C17.0505 20.696 17.4108 21.7062 17.4104 22.7486V27" stroke="#FFA629" stroke-width="2.5" stroke-linecap="round" stroke-linejoin="round"/>
</svg>
