<svg width="19" height="24" viewBox="0 0 19 24" fill="none" xmlns="http://www.w3.org/2000/svg">
<path d="M17.8642 4.76206L15.9753 9.99505L10.9236 12.393L10.5654 12.5627L10.7323 12.923L13.0884 17.9929L11.1988 23.2277L0.512358 19.3703L2.40194 14.1355L7.45303 11.7393L7.81156 11.5687L7.64434 11.2093L5.28888 6.13763L7.1778 0.904638L17.8642 4.76206ZM12.6641 7.22896L12.5958 7.41818L10.5088 8.40805L9.53514 6.31341L9.60345 6.12419L12.6641 7.22896ZM11.873 17.7473L11.8035 17.5976L9.37785 12.3781L9.24174 12.085L9.53335 11.9473L14.7339 9.47945L14.883 9.40868L16.2885 5.51493L7.90942 2.4904L6.50392 6.38415L6.57344 6.53383L8.99875 11.7543L9.13427 12.0462L8.84325 12.1851L3.64307 14.652L3.49398 14.7228L2.08814 18.6174L10.4672 21.642L11.873 17.7473Z" fill="black" stroke="white" stroke-width="0.8"/>
</svg>
