<svg width="25" height="25" viewBox="0 0 25 25" fill="none" xmlns="http://www.w3.org/2000/svg">
<path d="M7.46015 0.5H17.5402C21.3802 0.5 24.5002 3.62 24.5002 7.46V17.54C24.5002 19.3859 23.7669 21.1562 22.4616 22.4615C21.1564 23.7667 19.3861 24.5 17.5402 24.5H7.46015C3.62015 24.5 0.500153 21.38 0.500153 17.54V7.46C0.500153 5.61409 1.23344 3.84379 2.53869 2.53854C3.84394 1.23328 5.61425 0.5 7.46015 0.5ZM7.22015 2.9C6.07442 2.9 4.97561 3.35514 4.16545 4.1653C3.35529 4.97546 2.90015 6.07427 2.90015 7.22V17.78C2.90015 20.168 4.83215 22.1 7.22015 22.1H17.7802C18.9259 22.1 20.0247 21.6449 20.8349 20.8347C21.645 20.0245 22.1002 18.9257 22.1002 17.78V7.22C22.1002 4.832 20.1682 2.9 17.7802 2.9H7.22015ZM18.8002 4.7C19.198 4.7 19.5795 4.85804 19.8608 5.13934C20.1421 5.42064 20.3002 5.80218 20.3002 6.2C20.3002 6.59783 20.1421 6.97936 19.8608 7.26066C19.5795 7.54197 19.198 7.7 18.8002 7.7C18.4023 7.7 18.0208 7.54197 17.7395 7.26066C17.4582 6.97936 17.3002 6.59783 17.3002 6.2C17.3002 5.80218 17.4582 5.42064 17.7395 5.13934C18.0208 4.85804 18.4023 4.7 18.8002 4.7ZM12.5002 6.5C14.0915 6.5 15.6176 7.13214 16.7428 8.25736C17.868 9.38258 18.5002 10.9087 18.5002 12.5C18.5002 14.0913 17.868 15.6174 16.7428 16.7426C15.6176 17.8679 14.0915 18.5 12.5002 18.5C10.9089 18.5 9.38273 17.8679 8.25751 16.7426C7.13229 15.6174 6.50015 14.0913 6.50015 12.5C6.50015 10.9087 7.13229 9.38258 8.25751 8.25736C9.38273 7.13214 10.9089 6.5 12.5002 6.5ZM12.5002 8.9C11.5454 8.9 10.6297 9.27928 9.95457 9.95442C9.27944 10.6295 8.90015 11.5452 8.90015 12.5C8.90015 13.4548 9.27944 14.3705 9.95457 15.0456C10.6297 15.7207 11.5454 16.1 12.5002 16.1C13.4549 16.1 14.3706 15.7207 15.0457 15.0456C15.7209 14.3705 16.1002 13.4548 16.1002 12.5C16.1002 11.5452 15.7209 10.6295 15.0457 9.95442C14.3706 9.27928 13.4549 8.9 12.5002 8.9Z" fill="#FFA629"/>
</svg>
