<svg width="23" height="25" viewBox="0 0 23 25" fill="none" xmlns="http://www.w3.org/2000/svg">
<path fill-rule="evenodd" clip-rule="evenodd" d="M3.40975 3.27875C5.35914 1.2175 8.18557 0 11.6849 0C17.4373 0 21.2516 3.28875 22.4588 7.84625C22.5437 8.167 22.4967 8.50806 22.3281 8.7944C22.1595 9.08075 21.8831 9.28892 21.5597 9.37313C21.2364 9.45733 20.8926 9.41067 20.6039 9.24341C20.3153 9.07615 20.1054 8.802 20.0205 8.48125C19.1044 5.0275 16.2956 2.5 11.6836 2.5C8.80302 2.5 6.66839 3.48625 5.24951 4.9875C3.81802 6.5025 3.02037 8.64125 3.02037 11.0938V13.9062C3.02037 16.3587 3.81802 18.4975 5.24951 20.0113C6.66839 21.515 8.80302 22.5 11.6836 22.5C13.7691 22.5 15.4236 22.02 16.6938 21.2438C17.9728 20.4625 18.7352 19.4263 18.9494 18.2375C19.1952 16.8675 18.8927 15.9275 18.3723 15.2488C18.0869 14.8835 17.7398 14.5702 17.3466 14.3225C17.1765 15.2587 16.8728 16.1425 16.4141 16.835C14.723 19.3838 11.4896 19.6025 9.35747 18.7588C8.20321 18.3025 7.21402 17.0537 6.90655 15.715C6.71988 14.9477 6.78206 14.1415 7.08423 13.4113C7.41816 12.6163 8.03687 11.9388 8.91769 11.4237C9.78969 10.9125 11.0851 10.6775 12.3691 10.6425C13.1428 10.6213 13.9821 10.6725 14.8263 10.8088C14.6499 9.99625 14.3513 9.39 14.0148 9.07875C13.4049 8.51625 12.3943 8.12 11.3812 8.12625C10.4021 8.13375 9.57169 8.5075 9.0752 9.295C8.89808 9.57613 8.61562 9.77595 8.28998 9.85049C7.96433 9.92504 7.62218 9.86821 7.33877 9.6925C7.05537 9.51679 6.85394 9.23661 6.77879 8.91358C6.70364 8.59054 6.76093 8.25113 6.93806 7.97C7.99277 6.2975 9.73046 5.63875 11.3648 5.62625C12.9652 5.615 14.6134 6.21625 15.7324 7.24875C16.8639 8.29375 17.3503 10.0075 17.4764 11.5662C18.5777 12.0425 19.6185 12.7413 20.3809 13.7375C21.3651 15.025 21.7885 16.685 21.4306 18.6763C21.0652 20.7062 19.7735 22.2987 18.0157 23.3725C16.2919 24.425 14.1648 25 11.6836 25C8.18557 25 5.35788 23.7825 3.41101 21.7213C1.47548 19.6738 0.500153 16.8913 0.500153 13.9062V11.0938C0.500153 8.10875 1.47548 5.32625 3.41101 3.27875H3.40975ZM14.9398 13.375C14.1178 13.1992 13.2777 13.1211 12.4372 13.1425C11.3144 13.1725 10.5269 13.3837 10.198 13.5763C9.71408 13.86 9.5049 14.1488 9.41165 14.3725C9.31216 14.6234 9.2954 14.8991 9.36377 15.16C9.5175 15.83 10.0253 16.3325 10.2912 16.4363C11.7101 16.9988 13.4856 16.7013 14.3084 15.4613C14.6046 15.0138 14.8402 14.2612 14.9385 13.375H14.9398Z" fill="#FFA629"/>
</svg>
