<svg width="25" height="25" viewBox="0 0 25 25" fill="none" xmlns="http://www.w3.org/2000/svg">
<path d="M23.7943 6.60377C22.2347 6.6019 20.7396 5.98009 19.6369 4.87474C18.5341 3.76939 17.9138 2.27075 17.9119 0.707547C17.9119 0.519894 17.8375 0.339927 17.7052 0.207236C17.5728 0.0745448 17.3932 0 17.206 0H12.5002C12.3129 0 12.1334 0.0745448 12.001 0.207236C11.8686 0.339927 11.7943 0.519894 11.7943 0.707547V16.2736C11.794 16.7378 11.6694 17.1934 11.4337 17.5929C11.1979 17.9925 10.8594 18.3213 10.4537 18.545C10.0479 18.7688 9.5897 18.8793 9.12681 18.8651C8.66392 18.8509 8.21331 18.7125 7.82197 18.4642C7.43064 18.216 7.11292 17.8671 6.90196 17.4538C6.69099 17.0406 6.5945 16.5782 6.62255 16.1148C6.65061 15.6515 6.80218 15.2042 7.06145 14.8195C7.32073 14.4349 7.67821 14.127 8.09662 13.9281C8.21733 13.8707 8.31932 13.7802 8.39075 13.6671C8.46218 13.5539 8.50011 13.4228 8.50015 13.2889V8.25472C8.50005 8.15188 8.47758 8.0503 8.43432 7.95706C8.39106 7.86382 8.32803 7.78114 8.24964 7.7148C8.17125 7.64846 8.07938 7.60005 7.98041 7.57293C7.88145 7.54581 7.77778 7.54064 7.67662 7.55778C3.58251 8.28773 0.500153 12.0342 0.500153 16.2736C0.500153 18.588 1.41738 20.8076 3.05005 22.4441C4.68272 24.0806 6.89709 25 9.20603 25C11.515 25 13.7294 24.0806 15.362 22.4441C16.9947 20.8076 17.9119 18.588 17.9119 16.2736V11.1946C19.7068 12.2095 21.7335 12.7405 23.7943 12.7358C23.9815 12.7358 24.161 12.6613 24.2934 12.5286C24.4258 12.3959 24.5002 12.216 24.5002 12.0283V7.31132C24.5002 7.12367 24.4258 6.9437 24.2934 6.81101C24.161 6.67832 23.9815 6.60377 23.7943 6.60377ZM23.0884 11.2972C21.1163 11.1709 19.2199 10.4887 17.6178 9.32901C17.5122 9.25299 17.3877 9.20768 17.258 9.19808C17.1284 9.18847 16.9986 9.21496 16.883 9.2746C16.7674 9.33425 16.6705 9.42474 16.6029 9.53609C16.5353 9.64744 16.4998 9.77534 16.5002 9.90566V16.2736C16.5002 18.2127 15.7317 20.0723 14.3638 21.4435C12.9958 22.8146 11.1406 23.5849 9.20603 23.5849C7.27151 23.5849 5.41623 22.8146 4.04831 21.4435C2.6804 20.0723 1.91192 18.2127 1.91192 16.2736C1.91192 13.0047 4.08486 10.0849 7.08839 9.1533V12.8715C6.49767 13.241 6.01341 13.7586 5.6835 14.3733C5.35359 14.9879 5.18947 15.6782 5.20736 16.3759C5.22524 17.0736 5.42452 17.7546 5.78548 18.3514C6.14645 18.9483 6.65659 19.4403 7.26546 19.7789C7.87433 20.1175 8.56084 20.2909 9.25708 20.282C9.95333 20.2731 10.6352 20.0822 11.2352 19.7281C11.8353 19.3741 12.3327 18.8691 12.6784 18.2632C13.024 17.6574 13.2059 16.9715 13.206 16.2736V1.41509H16.5343C16.6998 3.1011 17.4435 4.67739 18.6386 5.87533C19.8338 7.07327 21.4064 7.81873 23.0884 7.98467V11.2972Z" fill="#FFA629"/>
</svg>
