<svg width="24" height="18" viewBox="0 0 24 18" fill="none" xmlns="http://www.w3.org/2000/svg">
<path d="M13.0339 0.0897949C11.3389 0.202795 9.1339 2.11679 6.1339 7.03679C6.3789 4.27879 6.4789 2.3208 5.2769 1.2938C4.4539 0.591795 2.5129 0.319795 1.3509 1.82979C0.179904 3.34879 -0.0900959 6.3118 0.0239041 9.4318C0.261904 15.9498 2.5679 17.9188 4.6139 17.9188C8.2369 17.9188 8.7449 13.4798 11.2189 9.5188C11.1289 10.9348 11.2109 12.1868 11.4849 13.0508C12.5629 16.4488 16.2689 16.7138 17.9519 13.2608C20.3259 8.39079 21.0099 7.24479 23.4049 3.73979C24.9849 1.42579 23.1529 -0.0722049 21.0309 1.0048C19.9409 1.5588 18.1709 2.93979 15.9659 5.87179C16.3529 3.64179 16.2459 -0.124205 13.0339 0.0897949Z" fill="#F2A316"/>
</svg>
